<svg width="607" height="723" viewBox="0 0 607 723" fill="none" xmlns="http://www.w3.org/2000/svg">
<path d="M334.955 71.4116L427.62 108.818L484.58 178.529L501.583 243.99L514.335 414.018L566.193 449.724V488.83L550.041 514.335L532.188 530.487H451.424L334.955 71.4116Z" fill="#929292"/>
<path d="M322.753 523.518C275.447 509.547 233.734 479.398 204 437.687C174.266 395.976 158.152 345.004 158.126 292.578C158.1 240.151 174.162 189.161 203.853 147.416C233.545 105.671 275.228 75.4733 322.519 61.4476L382.563 292.448L322.753 523.518Z" fill="#4A4A4A"/>
<path d="M312.001 451.425C359.306 438.528 380.067 438.75 409.801 400.246C439.534 361.741 455.648 314.688 455.675 266.291C455.701 217.895 439.639 170.824 409.947 132.288C380.256 93.7519 338.339 65.6565 291.048 52.709L231.238 266.172L312.001 451.425Z" fill="#4A4A4A"/>
<path d="M197.232 473.528C197.232 501.23 172.872 523.686 142.823 523.686C112.774 523.686 88.4141 501.23 88.4141 473.528C88.4141 445.827 128.371 417.419 142.823 422.52C157.275 427.621 197.232 445.827 197.232 473.528Z" fill="#4A4A4A"/>
<ellipse cx="466.312" cy="479.1" rx="54.409" ry="50.1583" transform="rotate(-179.502 466.312 479.1)" fill="#4A4A4A"/>
<path d="M162.376 336.656L444.623 330.705C447.834 379.807 480.329 419.119 506.683 445.473C533.037 471.828 476.078 528.787 476.078 528.787L141.123 524.537L105.417 441.223C105.417 441.223 159.473 379.738 162.376 336.656Z" fill="#4A4A4A"/>
<path d="M56.3363 538.939C43.5596 538.396 31.2982 533.39 21.4189 524.684C11.5395 515.978 4.58319 504.048 1.60896 490.711C-1.36528 477.374 -0.194548 463.36 4.94293 450.802C10.0804 438.244 18.5898 430.904 29.7549 424.22L45.0574 439.522C38.4886 443.455 30.0786 453.819 27.056 461.207C24.0335 468.595 23.3447 476.84 25.0945 484.687C26.8444 492.534 30.9371 499.553 36.7495 504.675C42.5619 509.797 48.8193 515.715 56.3363 516.034V538.939Z" fill="#ADADAD"/>
<path d="M516.885 234.639C503.76 180.445 473.342 131.976 431.758 98.1601C390.174 64.3447 339.187 46.553 287.025 47.6563C234.863 48.7595 184.569 68.6933 144.258 104.241C103.948 139.788 75.7356 187.584 64.6104 242.29H88.4143C98.4592 192.896 122.17 155.025 158.566 122.929C194.962 90.8337 240.372 72.8356 287.469 71.8394C334.566 70.8433 380.602 86.9073 418.148 117.439C455.694 147.971 482.081 189.108 493.931 238.039L516.885 234.639Z" fill="#DADADA"/>
<path d="M56.3363 538.939C43.5596 538.396 31.2982 533.39 21.4189 524.684C11.5395 515.978 4.58319 504.048 1.60896 490.711C-1.36528 477.374 -0.194548 463.36 4.94293 450.802C10.0804 438.244 18.5898 430.904 29.7549 424.22L45.0574 439.522C38.4886 443.455 30.0786 453.819 27.056 461.207C24.0335 468.595 23.3447 476.84 25.0945 484.687C26.8444 492.534 30.9371 499.553 36.7495 504.675C42.5619 509.797 48.8193 515.715 56.3363 516.034V538.939Z" fill="#DADADA"/>
<rect x="56.1094" y="516.885" width="411.468" height="22.1036" fill="#DADADA"/>
<circle cx="466.727" cy="527.937" r="11.0518" fill="#DADADA"/>
<circle cx="536.439" cy="527.937" r="11.0518" fill="#DADADA"/>
<path d="M550.579 419.455C561.342 425.85 570.07 435.036 575.79 445.986C581.509 456.937 583.996 469.221 582.971 481.469C581.946 493.717 577.451 505.447 569.987 515.349C562.523 525.251 552.383 532.936 540.7 537.546L532.536 517.878C540.481 514.743 547.376 509.517 552.452 502.783C557.527 496.05 560.584 488.073 561.281 479.744C561.978 471.415 560.287 463.062 556.398 455.615C552.508 448.168 546.573 441.922 539.254 437.573L550.579 419.455Z" fill="#DADADA"/>
<path d="M539.783 437.981C527.56 431.971 517.612 424.548 510.084 414.018C502.556 403.488 497.69 390.186 496.694 377.705L518.585 375.762C519.303 384.758 523.831 393.901 529.257 401.492C534.683 409.082 542.143 415.33 550.953 419.661L539.783 437.981Z" fill="#DADADA"/>
<path d="M40.0755 443.082C52.2983 437.072 62.2465 429.649 69.7742 419.119C77.3018 408.589 85.7184 393.344 86.7139 380.863L64.6102 379.163C63.8927 388.159 57.2842 399.627 51.8581 407.217C46.432 414.808 37.7155 420.431 28.905 424.763L40.0755 443.082Z" fill="#DADADA"/>
<path d="M64.6104 242.29H88.4143L86.714 382.563L64.6104 383.413V242.29Z" fill="#DADADA"/>
<path d="M493.081 234.639H516.885L518.585 375.762L496.482 378.312L493.081 234.639Z" fill="#DADADA"/>
<path d="M375.762 532.188C375.762 542.682 373.695 553.074 369.679 562.769C365.663 572.465 359.776 581.274 352.356 588.695C344.935 596.115 336.126 602.002 326.43 606.018C316.735 610.034 306.343 612.101 295.849 612.101C285.354 612.101 274.963 610.034 265.267 606.018C255.572 602.002 246.762 596.115 239.342 588.695C231.921 581.274 226.035 572.465 222.019 562.769C218.003 553.074 215.936 542.682 215.936 532.188L242.285 532.188C242.285 539.222 243.671 546.187 246.363 552.685C249.054 559.184 253 565.089 257.974 570.063C262.948 575.036 268.852 578.982 275.351 581.674C281.85 584.365 288.815 585.751 295.849 585.751C302.883 585.751 309.848 584.365 316.347 581.674C322.845 578.982 328.75 575.036 333.724 570.063C338.698 565.089 342.643 559.184 345.335 552.685C348.027 546.187 349.412 539.222 349.412 532.188H375.762Z" fill="#DADADA"/>
<path d="M241.439 55.2591C241.439 48.0024 242.847 40.8167 245.581 34.1124C248.315 27.408 252.323 21.3163 257.375 16.185C262.428 11.0537 268.426 6.98337 275.027 4.20634C281.628 1.42931 288.703 -2.68174e-06 295.848 0C302.994 2.68175e-06 310.069 1.42932 316.67 4.20636C323.271 6.98339 329.269 11.0538 334.321 16.185C339.374 21.3163 343.381 27.408 346.116 34.1124C348.85 40.8167 350.257 48.0024 350.257 55.2591L325.319 55.2591C325.319 51.3286 324.556 47.4365 323.075 43.8052C321.594 40.1738 319.424 36.8743 316.687 34.095C313.95 31.3156 310.702 29.111 307.126 27.6068C303.551 26.1027 299.719 25.3285 295.848 25.3285C291.978 25.3285 288.146 26.1026 284.571 27.6068C280.995 29.111 277.746 31.3156 275.01 34.0949C272.273 36.8743 270.103 40.1738 268.622 43.8051C267.141 47.4365 266.378 51.3286 266.378 55.2591L241.439 55.2591Z" fill="#DADADA"/>
<ellipse cx="289.048" cy="427.62" rx="23.8039" ry="16.1527" fill="#D9D9D9"/>
<path d="M438.673 349.407C438.673 342.597 437.441 335.854 435.049 329.562C432.656 323.27 429.149 317.553 424.729 312.738C420.308 307.922 415.06 304.102 409.284 301.496C403.508 298.89 397.317 297.549 391.065 297.549C384.813 297.549 378.622 298.89 372.846 301.496C367.07 304.102 361.822 307.922 357.401 312.738C352.98 317.553 349.473 323.27 347.081 329.562C344.688 335.854 343.457 342.597 343.457 349.407L357.46 349.407C357.46 344.6 358.329 339.84 360.018 335.399C361.707 330.958 364.182 326.923 367.303 323.523C370.423 320.124 374.128 317.428 378.205 315.588C382.282 313.749 386.652 312.802 391.065 312.802C395.478 312.802 399.848 313.749 403.925 315.588C408.002 317.428 411.707 320.124 414.827 323.523C417.948 326.923 420.423 330.958 422.112 335.399C423.801 339.84 424.67 344.6 424.67 349.407H438.673Z" fill="#D9D9D9"/>
<path d="M241.439 349.407C241.439 342.597 240.208 335.854 237.815 329.562C235.423 323.27 231.916 317.553 227.495 312.738C223.075 307.922 217.826 304.102 212.05 301.496C206.274 298.89 200.083 297.549 193.831 297.549C187.58 297.549 181.389 298.89 175.613 301.496C169.837 304.102 164.588 307.922 160.168 312.738C155.747 317.553 152.24 323.27 149.848 329.562C147.455 335.854 146.224 342.597 146.224 349.407L160.226 349.407C160.226 344.6 161.096 339.84 162.784 335.399C164.473 330.958 166.949 326.923 170.069 323.523C173.19 320.124 176.894 317.428 180.971 315.588C185.049 313.749 189.418 312.802 193.831 312.802C198.245 312.802 202.614 313.749 206.692 315.588C210.769 317.428 214.473 320.124 217.594 323.523C220.714 326.923 223.19 330.958 224.878 335.399C226.567 339.84 227.437 344.6 227.437 349.407H241.439Z" fill="#D9D9D9"/>
<rect x="382.563" y="343.457" width="30.605" height="8.5014" fill="#D9D9D9"/>
<path d="M382.564 368.859L408.067 346.857L413.17 351.956L386.813 374.061L382.564 368.859Z" fill="#D9D9D9"/>
<rect x="382.563" y="368.961" width="32.3053" height="8.5014" fill="#D9D9D9"/>
<rect x="436.68" y="285.647" width="45.9076" height="12.7521" fill="#D9D9D9"/>
<path d="M436.681 323.75L474.935 290.747L482.588 298.395L443.053 331.553L436.681 323.75Z" fill="#D9D9D9"/>
<rect x="436.68" y="323.903" width="48.458" height="12.7521" fill="#D9D9D9"/>
<rect x="495.887" y="227.838" width="36.0027" height="10.0007" fill="#D9D9D9"/>
<path d="M495.887 257.719L525.888 231.837L531.89 237.835L500.885 263.839L495.887 257.719Z" fill="#D9D9D9"/>
<rect x="495.887" y="257.84" width="38.0028" height="10.0007" fill="#D9D9D9"/>
<g filter="url(#filter0_f_403_76)">
<ellipse cx="295.849" cy="702.216" rx="234.639" ry="15.3025" fill="#DADADA"/>
</g>
<defs>
<filter id="filter0_f_403_76" x="56.21" y="681.913" width="479.277" height="40.605" filterUnits="userSpaceOnUse" color-interpolation-filters="sRGB">
<feFlood flood-opacity="0" result="BackgroundImageFix"/>
<feBlend mode="normal" in="SourceGraphic" in2="BackgroundImageFix" result="shape"/>
<feGaussianBlur stdDeviation="2.5" result="effect1_foregroundBlur_403_76"/>
</filter>
</defs>
</svg>
